# xmcd
#
# Track frame offsets:
#	150
#	11310
#	24258
#	52052
#	73039
#	93228
#	116469
#	132354
#	147953
#	165520
#	182363
#	202177
#	226830
#	250099
#	262639
#
# Disc length: 3845 seconds
#
# Revision: 15
# Processed by: cddbd v1.5.2PL0 Copyright (c) Steve Scherf et al.
# Submitted via: EasyCDDAExtractor 16.1.0.1
#
DISCID=bb0f030f
DTITLE=Various Artist - Love Ballads CD 3
DYEAR=2013
DGENRE=Ballad
TTITLE0=The Animals - Don't Let Me Be Misunderstood
TTITLE1=Roxy Music - Angel Eyes
TTITLE2=Gary Moore - Still Got The Blues
TTITLE3=Tasmin Archer - Sleeping Satellite
TTITLE4=Mica Paris - One
TTITLE5=Whitesnake - Here I Go Again
TTITLE6=C.C.S. - Whole Lotta Love
TTITLE7=Marillion - Sympathy
TTITLE8=Steve Harley and Cockney Club - Make Me Smile (Come Up And See Me)
TTITLE9=Ten Years After - I'd Love To Change The World
TTITLE10=Culture Club - Do You Really Want To Hurt Me
TTITLE11=Duran Duran - Save A Prayer
TTITLE12=Spandau Ballet - I'll Fly For You
TTITLE13=Al Martino - Spanish Eyes
TTITLE14=Babe Ruth - The Mexican
EXTD=
EXTT0=
EXTT1=
EXTT2=
EXTT3=
EXTT4=
EXTT5=
EXTT6=
EXTT7=
EXTT8=
EXTT9=
EXTT10=
EXTT11=
EXTT12=
EXTT13=
EXTT14=
PLAYORDER=
